<?xml version="1.0" standalone="no"?>
<!DOCTYPE svg PUBLIC "-//W3C//DTD SVG 20010904//EN"
 "http://www.w3.org/TR/2001/REC-SVG-20010904/DTD/svg10.dtd">
<svg version="1.0" xmlns="http://www.w3.org/2000/svg"
 width="438.000000pt" height="65.000000pt" viewBox="0 0 438.000000 65.000000"
 preserveAspectRatio="xMidYMid meet">

<g transform="translate(0.000000,65.000000) scale(0.100000,-0.100000)"
fill="#000000" stroke="none">
<path d="M412 573 c-19 -9 -41 -32 -53 -55 -18 -34 -19 -56 -17 -226 l3 -187
62 -3 62 -3 3 73 3 73 213 3 212 2 0 65 0 65 -215 0 -215 0 0 40 0 40 215 0
215 0 0 65 0 65 -227 0 c-190 0 -233 -3 -261 -17z"/>
<path d="M1021 577 c-13 -6 -34 -25 -45 -40 -20 -27 -21 -41 -21 -230 l0 -202
63 -3 62 -3 0 71 0 70 458 0 457 0 0 -67 0 -68 63 0 c34 0 62 3 62 8 0 4 0
113 0 242 l0 235 -537 0 c-407 0 -544 -3 -562 -13z m972 -162 l0 -40 -454 0
-454 0 -3 43 -3 42 457 -2 457 -3 0 -40z"/>
<path d="M2180 345 l0 -245 65 0 65 0 0 59 0 59 148 4 c143 3 150 4 191 31
117 78 104 260 -23 318 -36 16 -67 19 -243 19 l-203 0 0 -245z m401 105 c24
-13 25 -57 2 -82 -14 -16 -33 -18 -145 -18 l-128 0 0 55 0 55 126 0 c69 0 134
-5 145 -10z"/>
<path d="M2864 580 c-29 -12 -74 -67 -75 -93 0 -12 0 -103 0 -202 l0 -180 62
0 63 0 -3 68 -2 67 150 0 151 0 0 -70 0 -70 65 0 65 0 0 245 0 245 -227 -1
c-126 0 -237 -4 -249 -9z m346 -165 l0 -46 -147 3 -148 3 -3 43 -3 42 150 0
151 0 0 -45z"/>
<path d="M3480 572 c-109 -54 -106 -213 4 -263 34 -15 66 -19 182 -19 109 0
144 -3 153 -14 9 -11 8 -18 -4 -30 -14 -14 -46 -16 -216 -16 l-199 0 0 -65 0
-65 208 0 c196 0 210 1 252 23 60 30 90 76 90 140 0 56 -24 104 -68 133 -23
16 -53 20 -187 24 -142 4 -160 7 -163 23 -3 16 12 17 207 17 l211 0 0 65 0 65
-217 0 c-188 0 -223 -2 -253 -18z"/>
<path d="M4080 570 c-11 -11 -20 -30 -20 -43 0 -28 39 -67 66 -67 27 0 64 40
64 68 0 29 -34 62 -65 62 -14 0 -34 -9 -45 -20z m86 -15 c30 -46 -17 -101 -64
-76 -46 25 -29 101 23 101 15 0 31 -10 41 -25z"/>
<path d="M4101 523 c1 -21 3 -30 6 -20 6 21 12 22 27 1 10 -13 12 -10 13 20 1
32 -2 36 -23 36 -21 0 -24 -4 -23 -37z m39 17 c0 -5 -4 -10 -10 -10 -5 0 -10
5 -10 10 0 6 5 10 10 10 6 0 10 -4 10 -10z"/>
</g>
</svg>
